<?xml version="1.0" standalone="no"?>
<!DOCTYPE svg PUBLIC "-//W3C//DTD SVG 20010904//EN"
 "http://www.w3.org/TR/2001/REC-SVG-20010904/DTD/svg10.dtd">
<svg version="1.0" xmlns="http://www.w3.org/2000/svg"
 width="260.000000pt" height="260.000000pt" viewBox="0 0 260.000000 260.000000"
 preserveAspectRatio="xMidYMid meet">
<metadata>
Created by potrace 1.11, written by Peter Selinger 2001-2013
</metadata>
<g transform="translate(0.000000,260.000000) scale(0.100000,-0.100000)"
fill="#000000" stroke="none">
<path d="M1151 1953 c-23 -76 -60 -194 -81 -263 l-40 -125 -347 0 -347 0 -12
-40 c-7 -22 -26 -85 -44 -140 -17 -55 -55 -179 -85 -275 -29 -96 -72 -236 -95
-310 -23 -74 -43 -139 -45 -145 -1 -5 -5 -17 -8 -25 -7 -18 -37 -113 -37 -116
0 -1 313 -2 696 -2 l695 0 9 22 c5 11 27 80 48 151 22 72 55 180 74 240 l34
110 342 1 c196 0 346 4 351 10 9 9 41 106 150 467 10 34 30 98 44 142 14 44
30 96 36 115 5 19 23 78 40 130 16 52 36 116 44 143 l15 47 -697 0 -697 0 -43
-137z m1149 -42 c1 -8 -202 -695 -207 -700 -5 -7 -93 83 -93 96 0 13 29 117
75 269 15 47 25 88 22 90 -2 3 -17 7 -32 10 -61 11 -117 56 -119 96 -1 22 -3
22 -161 23 -172 1 -185 -1 -185 -20 0 -7 -12 -25 -27 -40 -43 -42 -89 -62
-150 -64 -17 -1 -25 -10 -34 -43 -7 -24 -16 -47 -21 -53 -6 -7 -129 -17 -128
-10 0 0 7 20 14 45 8 25 31 99 50 165 20 66 38 125 40 131 4 11 956 16 956 5z
m-926 -642 c3 -3 -2 -30 -12 -60 l-17 -54 -437 -1 c-280 0 -438 3 -438 9 0 6
7 33 16 62 l16 51 433 0 c238 -1 436 -4 439 -7z m-92 -320 c-1 -8 -10 -35 -19
-61 l-16 -46 -439 0 c-363 0 -439 2 -434 13 3 8 10 33 16 57 7 24 16 45 20 48
4 3 203 5 442 4 367 -1 433 -3 430 -15z"/>
</g>
</svg>
